<?xml version="1.0" encoding="UTF-8" standalone="no"?>
<!-- Created with Inkscape (http://www.inkscape.org/) -->

<svg
   width="194.04404mm"
   height="90.482124mm"
   viewBox="0 0 194.04404 90.482124"
   version="1.1"
   id="svg1"
   xml:space="preserve"
   xmlns="http://www.w3.org/2000/svg"
   xmlns:svg="http://www.w3.org/2000/svg"><defs
     id="defs1" /><g
     id="layer1"
     transform="translate(-7.9469822,-74.670958)"><g
       id="g1"
       transform="matrix(0.88024171,0,0,0.79873259,11.514618,16.945789)">
       <path
         style="fill:#053283;fill-opacity:1"
         d="m 11.886042,185.29029 c 2.8e-4,-0.14294 0.19688,-0.2613 0.43688,-0.26301 0.24,-0.002 0.58213,-0.0991 0.76029,-0.21635 0.19267,-0.12685 -0.26175,-0.22355 -1.1216,-0.23868 -3.0604397,-0.0539 -8.6104697,-2.368 -11.90203966,-4.96269 -1.66642004,-1.31361 -4.11322004,-3.70725 -4.11259004,-4.02324 2.2e-4,-0.11209 0.30898,-0.20401 0.68612,-0.20426 2.19878,-0.001 6.93386,-1.74115 9.03099,-3.31802 1.14678,-0.86229 1.78353,-1.08034 1.26656,-0.43373 -0.437,0.54659 -3.64633,2.70857 -4.69492,3.16275 -0.4857,0.21037 -1.67881996,0.59066 -2.65136996,0.84508 -1.76187004,0.46089 -1.76557004,0.46373 -1.02087004,0.78227 1.06518004,0.45561 3.65841,0.18317 5.8748,-0.6172 2.94727,-1.06429 5.9299697,-3.06145 8.7282697,-5.84426 0.64554,-0.64196 1.61156,-1.59941 2.14672,-2.12768 1.11117,-1.09685 1.39089,-1.43282 1.79494,-2.1559 0.20463,-0.36619 0.2901,-0.40285 0.29426,-0.12623 0.0102,0.67522 -0.86227,1.87583 -3.02288,4.1599 -5.0580797,5.34709 -10.5738497,8.38193 -14.44714966,7.94899 l -1.12182004,-0.1254 0.99646004,0.46988 c 1.27387996,0.60069 3.83704996,0.64736 5.62723996,0.10245 2.02782,-0.61724 4.9372597,-2.27094 6.7968697,-3.8633 l 1.65307,-1.41549 -0.75399,1.1594 c -0.80977,1.24516 -2.01988,2.34218 -4.2495197,3.85237 -1.41012,0.95511 -4.54075,1.97704 -6.06264,1.97902 -0.70719,9.3e-4 -0.65793,0.0563 0.59959,0.67358 1.57134,0.77138 2.52944,0.73741 5.2367,-0.18565 1.6364097,-0.55795 4.5492397,-2.33157 5.7895197,-3.52523 0.64861,-0.62424 0.66714,-0.62713 0.52941,-0.0828 l -0.14271,0.56407 0.96798,-0.57147 c 1.15238,-0.68033 2.69049,-2.33741 3.34142,-3.59987 0.2577,-0.49979 0.87315,-1.55114 1.36767,-2.33635 0.80448,-1.27734 1.9224,-4.31384 2.03179,-5.51875 0.0246,-0.27095 -0.12971,-0.45508 -0.38181,-0.45558 -0.2327,-4.6e-4 -0.42343,0.16944 -0.42384,0.37757 -4.2e-4,0.20813 0.0929,0.31836 0.2073,0.24497 0.11443,-0.0734 0.20791,-0.0604 0.20773,0.0289 -4.8e-4,0.2414 -0.5487,1.27689 -0.75507,1.42618 -0.0985,0.0713 -0.60656,0.83046 -1.12898,1.68708 -0.52242,0.85662 -1.01573,1.61584 -1.09624,1.68715 -0.0805,0.0713 -0.26706,0.35636 -0.41455,0.63345 -0.14749,0.27708 -0.40269,0.55022 -0.5671,0.60698 -0.36745,0.12685 0.12687,-1.13199 0.71019,-1.80858 0.20718,-0.2403 0.65832,-0.9996 1.00255,-1.68733 0.34422,-0.68773 0.68436,-1.30878 0.75587,-1.38011 0.30469,-0.30395 0.74077,-1.61668 0.6104,-1.83754 -0.0781,-0.13238 -0.31577,-0.24105 -0.52806,-0.24147 -0.22027,-4.4e-4 -0.33061,-0.15025 -0.25701,-0.34895 0.22132,-0.59747 -0.15508,-0.87134 -1.39631,-1.01597 -1.10137,-0.12833 -1.29338,-0.0611 -2.37047,0.82967 -0.64461,0.53312 -1.39253,1.22693 -1.66204,1.54181 -0.76845,0.89778 -3.61807,2.99912 -5.1290097,3.78219 -0.75506,0.39132 -1.65375,0.91356 -1.9971,1.16054 -1.06658,0.76721 -3.03304,1.12306 -4.19203,0.7586 -3.41258996,-1.07314 -4.81879,-6.33239 -2.85177996,-10.66574 0.41640996,-0.91735 1.28014996,-2.33108 1.91942996,-3.14161 2.25453,-2.85849 7.2199497,-5.85576 11.5225897,-6.95535 2.6297,-0.67206 8.45246,-1.01774 8.91902,-0.52951 0.2107,0.22049 0.12727,0.29639 -0.32848,0.29881 -1.03122,0.005 -4.01285,0.90863 -5.81243,1.76064 -5.40032,2.5568 -9.6539797,7.90119 -9.6624197,12.14007 -0.004,1.84652 0.94575,3.21909 2.22846,3.22164 1.9858897,0.004 6.7368197,-4.09339 9.8585797,-8.50234 0.6357,-0.89782 1.64764,-1.99222 2.24875,-2.43201 0.68085,-0.49812 1.40868,-1.38226 1.93034,-2.34488 1.65234,-3.04909 2.3276,-3.96351 3.26394,-4.41997 0.5091,-0.24818 1.05794,-0.70765 1.21964,-1.02103 0.24918,-0.48293 0.21376,-0.63779 -0.23238,-1.01585 l -0.52638,-0.44606 1.00696,-1.90021 c 1.53734,-2.90109 2.93838,-4.71754 3.51624,-4.5588 0.50175,0.13783 1.42239,-1.14106 3.00336,-4.1721 0.39135,-0.7503 0.97626,-1.80178 1.29979,-2.33662 0.32354,-0.53484 2.02552,-3.60102 3.78218,-6.81375 1.75667,-3.21272 3.61843,-6.60066 4.13725,-7.52876 1.31137,-2.34585 2.00809,-3.81158 2.00892,-4.22626 10e-4,-0.5619 -2.96554,-1.06779 -5.06495,-0.8637 -2.80923,0.2731 -4.73527,0.81975 -6.9654,1.97693 -5.20539,2.70098 -8.79139,6.65455 -9.82246,10.82924 -0.84156,3.40741 0.23959,6.42002 3.5378,9.85804 1.13281,1.18082 2.05951,2.21693 2.05934,2.30246 -2.6e-4,0.13186 -3.20813,4.71739 -3.77454,5.39557 -0.10463,0.12527 -0.90024,-0.29174 -1.76803,-0.92667 -3.68015,-2.69265 -6.0994,-5.37268 -7.47468,-8.2804 -0.99559,-2.10496 -1.04253,-2.31203 -1.03141,-4.55024 0.01,-1.91901 0.13426,-2.66933 0.68673,-4.13099 1.73233,-4.5832 6.06427,-8.80171 12.27695,-11.95546 5.01078,-2.54363 10.02477,-3.68328 15.02263,-3.41457 4.33872,0.23328 7.32717,1.29154 9.12888,3.23267 1.35848,1.46361 1.73167,2.72559 1.61648,5.46632 -0.0823,1.95932 -0.21595,2.54419 -0.91016,3.98415 -1.40101,2.90603 -3.5533,5.09272 -6.67571,6.78241 -1.45594,0.78788 -3.83998,1.62935 -4.03578,1.42445 -0.0745,-0.078 0.0846,-0.46965 0.35347,-0.87044 0.2689,-0.40078 0.84563,-1.42971 1.28162,-2.2865 0.4472,-0.87882 1.15563,-1.81469 1.62536,-2.14719 2.73181,-1.93368 4.92121,-5.39786 5.11348,-8.09079 0.0991,-1.3876 -0.20186,-2.61628 -0.64,-2.61312 -0.098,7.1e-4 -0.3562,0.32182 -0.57371,0.71358 -0.2175,0.39175 -1.05296,1.88051 -1.85657,3.30834 -2.14424,3.80985 -4.45933,8.10526 -8.32557,15.44727 -4.08486,7.75714 -3.88077,7.31259 -3.51956,7.66647 0.18058,0.17692 1.13542,1.04002 2.12187,1.91801 3.66175,3.25912 5.29625,6.78218 5.28707,11.39596 -0.0102,5.12603 -1.86954,9.45569 -5.96716,13.89514 -2.41368,2.61504 -4.52387,4.22175 -7.72407,5.88114 -1.40716,0.72965 -2.5587,1.44252 -2.55898,1.58416 -0.001,0.54305 1.85511,0.22393 3.62223,-0.62273 1.01454,-0.48609 2.9453,-1.76133 4.29057,-2.83387 2.03078,-1.61905 2.99663,-2.17754 5.69016,-3.29023 13.92216,-5.75117 31.32498,-8.91791 55.13845,-10.03338 8.160008,-0.38223 30.489258,-0.11285 38.760648,0.46761 8.51415,0.5975 16.67698,1.39531 23.55894,2.3026 7.78362,1.02615 18.95982,3.06441 25.17516,4.59132 3.27035,0.80342 12.27856,3.44726 12.56403,3.68745 0.38259,0.32191 -0.45779,0.18277 -2.84581,-0.4712 -6.8453,-1.8746 -18.21575,-4.06619 -27.78596,-5.3556 -4.93231,-0.66454 -5.65456,-0.73732 -5.46965,-0.5512 0.057,0.0574 3.13208,0.70713 6.83345,1.44384 7.0984,1.41284 8.06479,1.62838 13.83276,3.08534 3.58426,0.90536 8.77111,2.43105 9.96814,2.93208 0.97587,0.40846 0.25617,0.33036 -1.12183,-0.12174 -3.12131,-1.02405 -8.77137,-2.4895 -12.95948,-3.36129 -4.11504,-0.85657 -14.04667,-2.39072 -17.94764,-2.7724 -1.64539,-0.16098 -4.50607,-0.46427 -6.35707,-0.67396 -14.68485,-1.66361 -38.38248,-2.17557 -53.732498,-1.16084 -17.57948,1.16212 -34.45726,3.85324 -45.27128,7.21839 -6.82614,2.12419 -10.71343,3.73388 -16.72019,6.9237 -5.83597,3.09913 -9.68275,4.51153 -14.2233,5.22229 -2.74976,0.43044 -5.73601,0.48636 -5.73525,0.1074 2.8e-4,-0.14294 0.0908,-0.25972 0.20104,-0.2595 0.36903,7.4e-4 2.60504,-1.57872 2.45591,-1.73478 -0.0809,-0.0847 -0.29035,-0.0314 -0.46539,0.11842 -0.44008,0.37665 -2.99489,1.28985 -4.88729,1.74693 -1.85406,0.44781 -2.29194,0.47056 -2.29124,0.11901 z m 0.93709,-3.14013 c 2.2544,-0.79924 5.23862,-3.29959 6.50747,-5.45232 0.68926,-1.1694 0.71631,-1.54103 0.0545,-0.7489 -0.27493,0.32908 -0.49966,0.48687 -0.49939,0.35065 2.7e-4,-0.13623 0.0984,-0.3586 0.21814,-0.49415 0.1197,-0.13556 0.2975,-0.59465 0.3951,-1.02021 l 0.17745,-0.77373 -0.6444,0.72183 c -0.35442,0.39701 -0.80501,1.04395 -1.00131,1.43764 -0.1963,0.39369 -1.17134,1.51341 -2.16675,2.48826 -1.82662,1.78889 -4.08461,3.11209 -6.4033297,3.75239 -0.58318,0.16104 -1.06044,0.35258 -1.06058,0.42564 -5.2e-4,0.25712 3.1326197,-0.2296 4.4230997,-0.6871 z m 9.33171,-3.18345 c 0.22468,-0.44128 0.53836,-1.09445 0.69706,-1.4515 0.15869,-0.35704 0.5655,-1.11643 0.90401,-1.68752 0.87435,-1.47513 1.58805,-3.5409 2.01164,-5.82258 0.48127,-2.59239 0.46055,-4.11567 -0.0268,-1.97037 -0.77699,3.42027 -1.6874,6.5486 -2.20065,7.56181 -1.48453,2.93062 -1.94936,3.72592 -2.78336,4.76214 -0.49796,0.61871 -1.02494,1.37075 -1.17106,1.6712 -0.41214,0.84746 2.10777,-2.157 2.56916,-3.06318 z m 0.1399,-2.7957 c 0.90044,-1.86589 1.53038,-3.66512 2.06888,-5.90918 0.84226,-3.50983 0.91323,-4.0365 0.509,-3.77724 -0.14668,0.0941 -0.21094,0.32339 -0.14281,0.50958 0.0681,0.1862 -0.0336,0.55427 -0.22605,0.81793 -0.19246,0.26366 -0.35529,0.77176 -0.36184,1.1291 -0.007,0.35735 -0.18016,1.2235 -0.38579,1.92479 -0.20562,0.70129 -0.3763,1.63657 -0.37928,2.07841 -0.004,0.64288 -0.059,0.72537 -0.27369,0.41297 -0.22879,-0.33293 -0.24851,-0.32547 -0.13396,0.0507 0.15416,0.50617 -1.8876,4.55306 -3.38015,6.69967 l -0.99251,1.42745 1.20178,-1.34071 c 0.7135,-0.79598 1.72779,-2.43069 2.49642,-4.02342 z m 2.84796,2.07561 c 0.42301,-0.81981 0.11254,-0.78909 -0.48364,0.0479 -0.39142,0.54949 -0.438,0.72475 -0.1636,0.61564 0.21098,-0.0839 0.50224,-0.38247 0.64724,-0.6635 z m 0.56947,-1.38896 c 0.0856,-0.23111 0.044,-0.33552 -0.0975,-0.24475 -0.13574,0.0871 -0.24702,0.26835 -0.24729,0.40285 -7.5e-4,0.37385 0.17814,0.29182 0.3448,-0.1581 z m -5.22914,-2.09779 c 0.0937,-0.25293 0.0382,-0.37185 -0.14413,-0.30891 -0.37299,0.12876 -0.5794,0.71903 -0.25166,0.71969 0.1339,2.6e-4 0.31201,-0.18459 0.39579,-0.41078 z m 10.16832,-4.14483 c 4.32798,-3.25588 6.7029,-7.34927 6.71786,-11.57881 0.01,-2.79025 -0.95745,-4.92266 -3.5726,-7.87562 l -0.65655,-0.74136 -0.74449,0.74049 c -0.65032,0.64681 -0.74525,0.92339 -0.75042,2.18626 -0.004,1.08191 -0.22782,1.96859 -0.88764,3.52318 -0.83838,1.97533 -0.88471,2.23706 -0.94261,5.326 -0.0518,2.76137 -0.14239,3.40935 -0.60429,4.32052 -0.35179,0.69397 -0.60716,1.81605 -0.72424,3.18229 -0.2205,2.57312 -0.10272,2.62301 2.16498,0.91705 z m -7.67787,-3.32847 c 0.34445,-1.26544 0.51692,-2.18728 0.38327,-2.04852 -0.21755,0.22584 -1.20001,3.73407 -1.21183,4.32726 -0.0114,0.57078 0.24443,-0.13274 0.82856,-2.27874 z m -1.44927,-1.20944 c 0.085,-0.14277 0.0358,-0.25982 -0.10944,-0.26011 -0.14523,-2.9e-4 -0.26429,0.11643 -0.26458,0.25937 -2.8e-4,0.14294 0.049,0.25999 0.10944,0.26011 0.0605,1.2e-4 0.17954,-0.11659 0.26458,-0.25937 z m 5.87861,-1.58607 c -2.01012,-1.70536 -6.06396,-3.40065 -7.96584,-3.33126 -0.68821,0.0251 0.0785,0.32139 3.00416,1.16085 0.77405,0.2221 2.28736,0.96776 3.36292,1.65701 1.93469,1.23981 2.77185,1.50864 1.59876,0.5134 z m -5.81701,-0.65 c -0.0827,-0.0865 -0.29773,-0.0962 -0.47788,-0.0215 -0.19908,0.0826 -0.14012,0.14427 0.15033,0.15732 0.26284,0.0118 0.41023,-0.0493 0.32755,-0.13586 z m 3.02265,-4.09278 c 0.16833,-0.48211 0.59817,-1.20378 0.95519,-1.6037 0.6223,-0.69707 0.62991,-0.74101 0.18425,-1.06282 -0.25568,-0.18463 -0.60016,-0.4569 -0.76551,-0.60505 -1.15426,-1.03421 -4.56387,1.36783 -4.56755,3.2178 -5.6e-4,0.28004 0.21774,0.40507 0.68493,0.39228 0.37716,-0.0103 1.07825,0.0942 1.55797,0.23226 1.43433,0.41283 1.62696,0.35646 1.95072,-0.57077 z m 0.78672,-0.5507 c 2.9e-4,-0.14294 -0.1086,-0.0847 -0.24197,0.12947 -0.13337,0.21415 -0.24272,0.50631 -0.243,0.64926 -2.9e-4,0.14294 0.1086,0.0847 0.24197,-0.12947 0.13336,-0.21415 0.24272,-0.50632 0.243,-0.64926 z m 2.05349,-3.63591 c -0.97673,-0.86007 -2.88402,-1.17552 -3.12783,-0.51731 -0.093,0.25116 -0.13437,0.49304 -0.0919,0.53753 0.0677,0.0709 2.7291,0.51053 3.63014,0.59971 0.18191,0.018 -0.003,-0.26096 -0.41044,-0.61993 z m 0.95613,-1.28322 c 4.1e-4,-0.20731 0.19734,-0.49212 0.43762,-0.63291 0.37871,-0.2219 0.31896,-0.30788 -0.44889,-0.6459 -1.79044,-0.78818 -2.06958,-0.77969 -2.68311,0.0816 -0.52688,0.73967 -0.53542,0.80652 -0.12062,0.94453 0.24551,0.0817 0.6706,0.24823 0.94464,0.3701 0.82649,0.36757 1.86952,0.30208 1.87036,-0.11743 z m 2.15287,-1.6372 c -0.35015,-0.7093 -0.92483,-1.07904 -2.31268,-1.48793 -0.95566,-0.28156 -0.84914,0.29358 0.11066,0.59756 0.50947,0.16135 1.26228,0.62477 1.6729,1.02982 0.41062,0.40505 0.78295,0.71217 0.82741,0.6825 0.0445,-0.0297 -0.0898,-0.39955 -0.29829,-0.82195 z m 14.34343,-30.29214 c -0.0655,-0.0685 -0.26809,0.13298 -0.45028,0.44774 -0.31649,0.54679 -0.31119,0.55234 0.11903,0.12455 0.24765,-0.24625 0.39671,-0.50378 0.33125,-0.57229 z m 1.29048,-2.28953 c 0.5903,-1.03516 1.33343,-2.14822 1.65141,-2.47345 0.66066,-0.67574 0.96686,-1.66334 0.72219,-2.32933 -0.15426,-0.4199 -0.18847,-0.4149 -0.43509,0.0635 -0.14722,0.28559 -0.48902,0.77331 -0.75956,1.08381 -0.27055,0.3105 -0.41636,0.69252 -0.32404,0.84892 0.0923,0.15641 -0.35285,1.27524 -0.98928,2.48629 -0.63642,1.21105 -1.10803,2.20201 -1.04801,2.20213 0.06,1.2e-4 0.59209,-0.84674 1.18238,-1.8819 z m 149.184558,63.18469 c -3.10531,-2.47878 -1.58889,-7.20826 2.30871,-7.20051 3.4877,0.007 5.11875,3.87264 2.87978,6.82525 -0.49,0.64618 -1.98421,1.23332 -3.13285,1.23104 -0.72993,-0.001 -1.26383,-0.22373 -2.05564,-0.85578 z m 4.14203,-1.90048 c 0.64066,-0.25477 1.18947,-1.59169 1.00882,-2.45752 -0.18354,-0.87967 -1.52201,-2.06019 -2.33768,-2.06181 -1.42189,-0.003 -2.23307,1.26315 -1.76439,2.75362 0.44932,1.42892 1.88267,2.24711 3.09325,1.76571 z m -82.7451,1.69719 c -1.26255,-0.47586 -1.51619,-0.76043 -1.04197,-1.169 0.29058,-0.25035 0.56596,-0.25944 1.16993,-0.0386 1.07739,0.39389 1.6064,0.36409 2.06939,-0.11657 0.57196,-0.59378 0.0903,-1.34971 -0.99683,-1.56453 -1.13595,-0.22447 -2.34542,-1.28263 -2.34389,-2.05067 0.003,-1.5752 1.88764,-2.56824 3.75777,-1.98015 1.14846,0.36115 1.28819,0.54149 0.8745,1.12868 -0.26303,0.37334 -0.43187,0.39737 -1.05628,0.15027 -0.96914,-0.38351 -2.0783,-0.0995 -2.07955,0.53241 -7e-4,0.34924 0.39876,0.63284 1.46618,1.04093 1.78298,0.68167 2.07558,1.01784 1.97188,2.26551 -0.13667,1.64443 -1.93764,2.50035 -3.79113,1.80175 z m -62.763138,-0.59852 c -0.46335,-0.32684 -0.98211,-0.8834 -1.15281,-1.2368 -0.72892,-1.50909 -0.0979,-4.11288 1.15789,-4.77813 1.48964,-0.78911 3.34944,-0.78493 4.38097,0.01 0.45427,0.35001 0.45892,0.40366 0.0699,0.80749 -0.34556,0.35874 -0.52652,0.38012 -1.06038,0.12529 -2.58783,-1.23528 -4.58286,1.55913 -2.7921,3.91088 0.51945,0.68218 1.7409,0.84634 2.68035,0.36023 0.60345,-0.31225 0.88875,-0.34339 1.14078,-0.12449 0.48286,0.41936 0.42441,0.5814 -0.38966,1.0804 -1.06686,0.65394 -2.99329,0.58007 -4.03498,-0.15471 z m 6.70254,-1.00833 c -0.0451,-1.46144 -0.0289,-3.4921 0.0403,-5.04254 0.0178,-0.39857 0.1784,-0.54083 0.5855,-0.51862 0.54408,0.0297 0.56291,0.12254 0.62515,3.08451 l 0.0642,3.05391 1.63114,0.003 c 1.41901,0.003 1.62017,0.0624 1.5468,0.45789 -0.0713,0.38456 -0.42029,0.46556 -2.26347,0.52541 l -2.17914,0.0708 z m 6.27121,1.43178 c -0.036,-0.53965 0.0605,-6.68414 0.10578,-6.73112 0.0289,-0.03 1.00485,-0.0795 2.16876,-0.10988 1.99831,-0.0522 2.12058,-0.024 2.19476,0.50602 0.0737,0.5266 -0.0228,0.56114 -1.55954,0.55808 l -1.63811,-0.003 -0.002,0.77969 c -0.001,0.64745 0.0989,0.77988 0.59065,0.78086 1.3072,0.003 2.15,0.3228 2.14902,0.81645 -8.3e-4,0.41741 -0.19768,0.48691 -1.37239,0.48458 l -1.37142,-0.003 -0.002,1.03958 -0.002,1.03958 1.62076,0.003 c 1.45454,0.003 1.62066,0.0565 1.61973,0.52302 -9.5e-4,0.48129 -0.16726,0.51946 -2.24517,0.51533 -1.23427,-0.002 -2.24999,-0.0922 -2.25715,-0.19942 z m 5.74832,0.0635 c 1.5e-4,-0.0786 0.19056,-0.51677 0.42312,-0.97377 0.23256,-0.45701 0.89072,-1.99782 1.46258,-3.42404 0.9067,-2.26134 1.12011,-2.59941 1.66789,-2.6422 0.62543,-0.0488 1.05773,0.77749 3.59521,6.87221 0.0922,0.22143 -0.11581,0.32464 -0.65207,0.32358 -0.66425,-0.001 -0.84422,-0.144 -1.15029,-0.91193 -0.35273,-0.88502 -0.40127,-0.91043 -1.74363,-0.91311 -1.34236,-0.003 -1.39099,0.0226 -1.74725,0.90617 -0.30282,0.75109 -0.49575,0.90865 -1.11115,0.90742 -0.40958,-8.1e-4 -0.74457,-0.0658 -0.74441,-0.14433 z m 4.35367,-3.29211 c -0.33335,-1.12349 -0.592,-1.75548 -0.71855,-1.75573 -0.14515,-2.9e-4 -0.88574,1.76185 -0.88643,2.10914 -2.5e-4,0.12549 0.39983,0.22896 0.88906,0.22993 0.80802,0.002 0.87362,-0.0518 0.71592,-0.58334 z m 4.55031,3.29037 c -0.26212,-0.2743 -0.20076,-6.80043 0.0655,-6.97123 0.52382,-0.33596 1.49139,0.45783 3.13268,2.57005 l 1.74099,2.24052 0.0759,-2.31419 c 0.0664,-2.02265 0.13585,-2.3304 0.55145,-2.44279 0.26154,-0.0707 0.53799,-0.0632 0.61434,0.0167 0.0763,0.0799 0.13572,1.70464 0.13193,3.61054 l -0.007,3.46527 -0.59363,-0.001 c -0.44449,-8.8e-4 -1.05407,-0.58748 -2.42651,-2.33503 -1.00809,-1.28362 -1.85851,-2.25018 -1.88983,-2.14791 -0.0313,0.10227 -0.0894,1.12151 -0.12918,2.26498 -0.0649,1.86734 -0.12407,2.08665 -0.58135,2.15395 -0.28001,0.0412 -0.58848,-0.008 -0.68549,-0.10966 z m 8.73263,-0.0152 c -0.16866,-0.34182 -0.016,-6.82302 0.16064,-6.82231 0.0932,3.8e-4 0.39392,0.001 0.66821,0.002 0.47407,9.4e-4 0.49835,0.17425 0.49171,3.50958 l -0.007,3.50858 -0.60865,-0.001 c -0.33476,-6.6e-4 -0.65198,-0.089 -0.70493,-0.19632 z m 3.81422,-3.39103 0.007,-3.59352 0.74781,0.11592 c 0.4113,0.0638 0.74794,0.19036 0.74808,0.28135 1.4e-4,0.091 0.33984,0.57543 0.7549,1.07656 0.41505,0.50113 1.11429,1.40529 1.55385,2.00925 0.43956,0.60396 0.87899,1.10189 0.97649,1.1065 0.0975,0.005 0.21173,-1.00351 0.25381,-2.24028 0.0717,-2.10569 0.1122,-2.25424 0.63773,-2.33617 0.420678,-0.0656 0.563178,0.0423 0.569078,0.43068 0.004,0.285 0.01,1.89239 0.0123,3.57197 0.004,3.02317 -10e-4,3.05456 -0.587928,3.12977 -0.48277,0.0619 -0.93531,-0.36832 -2.44595,-2.32537 l -1.85358,-2.40134 -0.0764,2.38532 c -0.075,2.34117 -0.0878,2.3853 -0.69046,2.3841 l -0.61401,-0.001 z m 9.609088,2.81158 c -2.13678,-1.9633 -1.42456,-5.3778 1.29782,-6.222 1.18856,-0.36857 2.54483,-0.16739 3.32424,0.49309 0.51326,0.43494 0.52052,0.48875 0.12188,0.9026 -0.38106,0.39561 -0.47795,0.40047 -0.95852,0.0482 -1.2338,-0.90451 -3.21573,-0.12182 -3.53907,1.39762 -0.0942,0.44245 -0.008,1.12931 0.21043,1.67732 0.40215,1.00899 1.01311,1.30244 2.42491,1.16471 0.65617,-0.064 0.86312,-0.21311 0.9259,-0.66705 0.0519,-0.37518 -0.0484,-0.58486 -0.27999,-0.58532 -0.50971,-0.001 -0.92817,-0.60612 -0.69262,-1.00157 0.21105,-0.35432 2.44428,-0.32536 2.32978,0.0302 -0.0345,0.10714 -0.0639,0.77656 -0.0653,1.4876 -0.002,1.16875 -0.0732,1.33071 -0.73903,1.68786 -0.40505,0.21728 -1.35525,0.39382 -2.11157,0.39232 -1.18051,-0.002 -1.49878,-0.11635 -2.24887,-0.80555 z m 19.05422,0.78413 c -0.003,-0.0413 -0.0224,-1.64162 -0.0443,-3.55625 l -0.0398,-3.48115 2.17081,-0.0232 c 2.09277,-0.0224 2.17077,-0.002 2.16976,0.56155 -9.8e-4,0.54146 -0.11184,0.58454 -1.49715,0.58179 l -1.49609,-0.003 1.1e-4,0.84466 c 1.1e-4,0.83511 0.0147,0.84544 1.28726,0.913 1.45024,0.077 1.57368,0.14081 1.36453,0.70542 -0.10658,0.28773 -0.50228,0.40006 -1.40302,0.39826 l -1.25456,-0.002 -0.002,1.03958 -0.002,1.03958 1.63905,0.003 c 1.42655,0.003 1.62811,0.0622 1.55471,0.45791 -0.0713,0.38456 -0.42029,0.46556 -2.26347,0.52541 -1.19853,0.0389 -2.1812,0.037 -2.18371,-0.004 z m 6.49478,-3.50773 0.007,-3.57549 2.05695,0.0877 c 1.82201,0.0777 2.1209,0.16179 2.61671,0.73634 0.75133,0.87066 0.72297,2.02999 -0.0698,2.85299 -0.67653,0.70234 -0.62193,1.02528 0.40816,2.41444 0.62698,0.84553 0.57915,1.07102 -0.22631,1.06702 -0.55658,-0.003 -0.84952,-0.27055 -1.5556,-1.42203 -0.62217,-1.01461 -1.02968,-1.42193 -1.43092,-1.43023 -0.51501,-0.0107 -0.56124,0.10559 -0.56386,1.4178 -0.003,1.35146 -0.0368,1.42936 -0.62621,1.42819 l -0.62337,-0.001 z m 3.6625,-1.00016 c 0.30764,-0.48335 0.30132,-0.60744 -0.0496,-0.97471 -0.23385,-0.24471 -0.81217,-0.42167 -1.38175,-0.4228 -0.97893,-0.002 -0.97959,-0.001 -0.98168,1.05257 l -0.002,1.05453 1.03132,-0.0779 c 0.7207,-0.0544 1.1375,-0.24468 1.38385,-0.63172 z m 5.58003,4.00928 c -0.11729,-0.32185 -0.72862,-1.84869 -1.3585,-3.39297 -0.62988,-1.54428 -1.14514,-2.86103 -1.14501,-2.92611 1.3e-4,-0.0651 0.31792,-0.1177 0.7062,-0.11693 0.66011,10e-4 0.76702,0.16318 1.64625,2.49254 0.51716,1.37013 1.01871,2.39447 1.11454,2.27631 0.0958,-0.11815 0.56027,-1.22827 1.03208,-2.46692 0.75659,-1.98631 0.93904,-2.26436 1.54587,-2.35595 0.37842,-0.0571 0.68784,-5.6e-4 0.68759,0.1257 -2.5e-4,0.12626 -0.56417,1.57154 -1.25314,3.21172 -0.68897,1.64019 -1.25302,3.15286 -1.25344,3.36149 -4.9e-4,0.24889 -0.26008,0.3788 -0.75497,0.37782 -0.55238,-0.001 -0.81128,-0.1581 -0.96747,-0.5867 z m 5.96753,-2.88166 0.007,-3.47829 0.62362,-0.12296 0.62362,-0.12297 -0.007,3.60249 -0.007,3.6025 -0.62338,-0.001 -0.62337,-10e-4 z m 5.10536,3.17252 c -1.20274,-0.72711 -1.61758,-1.60621 -1.61397,-3.42018 0.002,-1.25421 0.10168,-1.53674 0.815,-2.32146 1.04731,-1.15214 2.89725,-1.504 4.28379,-0.81478 0.97782,0.48606 1.06985,0.68499 0.53146,1.14884 -0.26114,0.22499 -0.49406,0.23318 -0.85639,0.0301 -0.76408,-0.42821 -2.08863,-0.31916 -2.71538,0.22356 -1.17831,1.02035 -0.92248,3.30947 0.45313,4.05445 0.87925,0.47617 1.16955,0.47357 2.07935,-0.0186 0.65953,-0.35678 0.76981,-0.35519 1.12204,0.0162 0.35522,0.37456 0.33403,0.45726 -0.23374,0.91227 -0.7177,0.57517 -3.03912,0.689 -3.86529,0.18954 z m 6.36429,-3.24497 0.007,-3.57357 2.24454,0.0879 c 2.02314,0.0792 2.24444,0.13734 2.24354,0.58923 -8.8e-4,0.44378 -0.1871,0.50097 -1.62176,0.49812 l -1.62076,-0.003 -0.002,0.77968 c -10e-4,0.72039 0.0695,0.78296 0.93342,0.82273 0.51424,0.0237 1.13137,0.0263 1.37141,0.006 0.30852,-0.0263 0.43606,0.15229 0.43515,0.60943 -0.001,0.61058 -0.0778,0.64652 -1.3727,0.64394 l -1.37142,-0.003 -0.002,1.03959 -0.002,1.03958 1.62077,0.003 c 1.45453,0.003 1.62066,0.0565 1.61973,0.52302 -9.6e-4,0.48128 -0.16727,0.51946 -2.24517,0.51532 l -2.24414,-0.004 z m 6.63454,3.16193 c -0.64632,-0.36665 -0.67757,-0.44404 -0.3265,-0.80851 0.33305,-0.34576 0.54583,-0.35671 1.49709,-0.0771 1.19313,0.35076 2.16474,0.0774 2.1661,-0.6095 0.001,-0.5153 -0.47628,-0.8446 -1.9916,-1.37402 -1.17184,-0.40941 -1.39014,-0.59241 -1.58954,-1.33244 -0.18912,-0.70186 -0.13975,-0.98492 0.27155,-1.5567 0.84714,-1.17768 2.96149,-1.40953 4.20132,-0.46069 0.39601,0.30307 0.41798,0.42385 0.14028,0.7712 -0.24247,0.30326 -0.44941,0.34453 -0.7849,0.15651 -0.73241,-0.41047 -2.15922,-0.31617 -2.33346,0.15422 -0.22309,0.60225 -0.0334,0.79086 1.26034,1.25323 1.61012,0.57544 2.07536,1.08263 2.07302,2.25997 -0.003,1.37396 -0.87354,2.05964 -2.59353,2.04218 -0.70148,-0.007 -1.59706,-0.19539 -1.99017,-0.41839 z m 24.09526,-0.50803 c -0.63298,-0.10814 -1.30932,-0.98228 -1.30791,-1.6904 0.001,-0.61635 1.09625,-1.74745 1.69057,-1.74627 0.70608,10e-4 1.55353,0.97216 1.543,1.76749 -0.0159,1.20257 -0.78004,1.8649 -1.92566,1.66918 z m 1.53107,-1.42019 c 0.37431,-0.61674 -0.075,-1.34021 -0.89748,-1.44527 -0.8136,-0.10392 -1.08582,0.59056 -0.5605,1.42991 0.4382,0.70016 1.03852,0.70648 1.45798,0.0154 z M 42.397082,180.0506 c -5.21371,-0.46635 -4.75984,-0.5948 3.84943,-1.08944 l 2.80551,-0.16118 -0.002,0.81312 -0.002,0.81312 -1.68303,-0.0409 c -0.92566,-0.0225 -3.16156,-0.17312 -4.96867,-0.33476 z m 128.520198,0.16326 c -0.2589,-0.54409 -0.009,-0.97463 0.56443,-0.97349 2.22698,0.004 8.97559,0.49717 8.97528,0.65532 -7.6e-4,0.38091 -9.3613,0.6931 -9.53971,0.31817 z m 9.91483,-0.87064 c -1.97928,-0.58714 -2.88451,-2.57466 -1.98987,-4.36892 1.28939,-2.58592 4.98905,-2.38691 5.77113,0.31045 0.6621,2.28358 -1.59563,4.70682 -3.78126,4.05847 z m 2.75896,-2.40602 c 0.74324,-0.77159 0.76991,-1.26201 0.12052,-2.21664 -0.78385,-1.1523 -2.35439,-1.23766 -3.05652,-0.16614 -0.3337,0.50926 0.0809,1.83064 0.76258,2.43033 0.85668,0.75366 1.4134,0.74148 2.17342,-0.0476 z m 23.62409,1.99584 c -0.89984,-0.57439 -1.31181,-1.98153 -0.87265,-2.98071 0.26554,-0.60418 1.6773,-1.44735 2.42089,-1.44588 0.22982,4.6e-4 0.74516,0.34335 1.14521,0.76198 1.27638,1.33568 0.92528,3.29637 -0.70532,3.9388 -0.84744,0.33387 -1.08738,0.30078 -1.98813,-0.27419 z m 2.76213,-1.59553 c 0.48961,-0.72547 0.10381,-1.64267 -0.86849,-2.06474 -1.33947,-0.58146 -1.93234,0.62002 -0.95056,1.92634 0.62242,0.82818 1.31782,0.88109 1.81905,0.1384 z M 15.400852,176.05502 c 0.01,-0.38974 0.98331,-1.57712 0.9887,-1.2057 0.003,0.18466 -0.22003,0.58637 -0.49493,0.89268 -0.27489,0.30632 -0.49709,0.44718 -0.49377,0.31302 z m 185.880038,-3.74808 c -2.03017,-0.92658 -2.09664,-3.89324 -0.1111,-4.95834 0.9458,-0.50735 1.6332,-0.49512 2.50589,0.0446 1.80177,1.1143 1.70844,3.92792 -0.16097,4.85246 -1.03047,0.50962 -1.23898,0.51535 -2.23382,0.0613 z m 2.67648,-1.87872 c 0.58971,-0.55404 0.5797,-1.15704 -0.0328,-1.97195 -0.62451,-0.83095 -1.32686,-1.02473 -1.98359,-0.54728 -0.67493,0.49067 -0.6644,1.57853 0.0227,2.34387 0.63679,0.70934 1.35782,0.77276 1.99368,0.17536 z m -189.301608,1.353 c 2.8e-4,-0.14294 0.11934,-0.25966 0.26458,-0.25937 0.14523,2.9e-4 0.19448,0.11734 0.10944,0.26011 -0.085,0.14278 -0.2041,0.25949 -0.26458,0.25937 -0.0605,-1.2e-4 -0.10973,-0.11717 -0.10944,-0.26011 z m 194.768908,-1.45317 c -1.1409,-0.72815 -1.673,-1.45671 -2.02819,-2.77706 -1.04192,-3.87313 2.85614,-7.41081 6.28673,-5.70553 1.47105,0.73123 2.71079,2.62032 2.7078,4.12606 -0.004,1.78026 -1.32064,3.92081 -2.82606,4.5929 -1.11986,0.49996 -3.16994,0.38292 -4.14028,-0.23637 z m 5.10526,-3.20536 c 1.73588,-1.80211 -0.34312,-5.04717 -2.82612,-4.41122 -1.14345,0.29285 -1.6422,1.23326 -1.39397,2.62835 0.39203,2.20323 2.82507,3.23112 4.22009,1.78287 z m -19.92362,1.68282 c -0.38527,-0.44552 -0.37328,-0.5128 0.18925,-1.06143 l 0.60059,-0.58576 0.16397,0.54234 c 0.0902,0.29829 0.32472,0.54266 0.52119,0.54305 0.48042,9.6e-4 0.44967,0.25988 -0.0805,0.67764 -0.59604,0.46967 -0.91078,0.44353 -1.39451,-0.11584 z M 19.317152,167.22907 c 0.15217,-0.41078 0.58503,-0.51699 0.58429,-0.14336 -2.6e-4,0.12765 -0.16319,0.2968 -0.36208,0.37589 -0.24169,0.0961 -0.31538,0.019 -0.22221,-0.23253 z m -1.26824,-1.40084 c 0.0952,-0.34734 0.39293,-0.98999 0.66157,-1.42812 0.43598,-0.71103 0.46993,-0.72684 0.31609,-0.14719 -0.0948,0.35717 -0.3925,0.99982 -0.66157,1.42811 -0.42953,0.68371 -0.46809,0.70167 -0.31609,0.1472 z m 185.383568,-2.37467 c -0.37206,-0.46918 -0.15758,-1.17315 0.35712,-1.17213 0.5599,0.001 1.032,1.04614 0.60074,1.32975 -0.46936,0.30866 -0.60592,0.28619 -0.95786,-0.15762 z m -15.39979,-0.37716 c -1.54619,-0.5784 -2.13313,-1.07999 -3.08644,-2.63764 -1.64358,-2.6855 -0.65705,-6.21798 3.75333,-13.43966 2.30519,-3.77459 2.65642,-4.49154 2.35496,-4.807 -0.24046,-0.25164 -1.55482,0.30268 -2.19559,0.92597 -5.759,5.60188 -10.86021,12.31617 -12.50026,16.45301 -0.57257,1.44426 -0.61343,1.48339 -1.48695,1.42378 -1.29166,-0.0881 -2.76298,-1.04269 -3.24386,-2.10454 -0.66046,-1.45836 -0.3721,-3.24701 0.99975,-6.20145 1.11748,-2.40663 3.10832,-6.2113 4.69972,-8.9816 0.82156,-1.43016 0.89692,-2.00851 0.26188,-2.00977 -1.90863,-0.004 -10.98313,10.56356 -13.94557,16.23978 -0.51479,0.98637 -0.97219,1.84131 -1.01645,1.89986 -0.2316,0.30638 -2.12652,-0.61689 -2.68067,-1.30612 -0.74016,-0.92057 -0.86475,-2.77691 -0.26002,-3.87432 0.69157,-1.25503 0.36129,-1.13865 -1.18524,0.41762 -3.01262,3.0316 -5.19439,4.23846 -7.01276,3.87915 -1.76547,-0.34887 -2.72998,-2.61267 -2.17164,-5.09709 0.14449,-0.64296 0.26563,-1.25708 0.2692,-1.36471 0.004,-0.10763 -0.8083,0.69478 -1.80415,1.78314 -3.26967,3.5734 -6.1226,5.24624 -8.30164,4.86775 -2.02949,-0.35252 -3.13592,-1.79886 -3.19558,-4.17732 -0.0192,-0.7648 -0.0659,-1.39155 -0.10387,-1.39278 -0.0379,-0.001 -0.79302,0.61773 -1.67795,1.37549 -1.69444,1.45091 -4.0702,2.80142 -5.74277,3.26449 -1.48051,0.40989 -4.47739,0.33858 -5.55237,-0.13212 -2.1681,-0.94934 -3.12011,-2.70267 -3.10085,-5.71087 0.0335,-5.23287 3.73741,-11.98604 8.82151,-16.08388 1.89481,-1.52724 3.74238,-2.44751 5.80503,-2.89148 2.96291,-0.63774 5.09147,0.0648 5.833,1.92536 0.90482,2.27021 -0.43827,5.63106 -3.506,8.77312 -2.82336,2.89178 -5.29976,4.24613 -8.95104,4.89534 -0.75574,0.13438 -0.96494,0.31162 -1.1791,0.99898 -0.79876,2.56374 -0.44694,4.68029 0.83414,5.01815 1.11995,0.29536 2.62319,-0.1236 4.42172,-1.23233 1.87063,-1.15319 5.28621,-4.47145 5.57633,-5.41746 0.31059,-1.01272 2.40386,-4.45821 3.79836,-6.25204 6.17403,-7.94202 13.35381,-10.49885 14.89894,-5.30576 0.12852,0.43196 0.20791,0.41628 0.97741,-0.19298 1.17847,-0.93307 3.23839,-0.78049 4.46638,0.33082 0.67125,0.60747 0.53438,1.23775 -0.79458,3.65899 -3.15467,5.74749 -5.64565,10.79491 -5.90952,11.97432 -0.0846,0.3781 0.004,0.86262 0.21151,1.15967 0.30956,0.44265 0.44435,0.46886 1.01781,0.19792 1.45493,-0.68741 4.56031,-4.27959 6.66458,-7.70935 1.48711,-2.42383 4.73364,-9.98117 4.73572,-11.02388 10e-4,-0.6091 0.55071,-0.74442 1.9479,-0.47969 3.42704,0.64933 3.94079,2.26399 1.9939,6.26669 -0.65711,1.35099 -2.11956,3.93105 -3.18631,5.62131 -0.21958,0.34793 1.22981,-1.09353 3.22087,-3.20324 5.34673,-5.66535 8.55569,-7.68183 11.00094,-6.91288 2.057,0.64685 2.39041,3.06651 0.8699,6.31312 -1.0562,2.25519 -1.82732,3.68058 -2.59401,4.79488 -1.02558,1.49058 -0.58469,1.22716 0.98128,-0.58626 2.61542,-3.02873 6.79214,-7.1848 8.27839,-8.23746 1.78619,-1.26512 2.94445,-1.69303 4.61255,-1.70411 2.34846,-0.0156 3.53874,1.05548 3.53452,3.18055 -0.003,1.63744 -0.36928,2.48732 -2.57472,5.9783 -1.67604,2.65299 -3.61094,6.06186 -4.37979,7.7162 -1.08642,2.33769 -1.40945,5.34293 -0.68989,6.41832 0.60027,0.89711 1.90592,1.22336 3.43578,0.85851 4.87994,-1.16378 8.94218,-6.37539 9.40087,-12.06075 l 0.16772,-2.07884 0.80767,1.2971 c 1.1586,1.86067 1.38836,2.97477 1.04075,5.04664 -0.49962,2.97789 -2.43869,5.62797 -5.62689,7.69013 -2.77031,1.79186 -4.25087,2.24286 -7.73676,2.35674 -2.46995,0.0807 -3.22087,0.0123 -4.30108,-0.39182 z m -42.91194,-9.21399 c 3.10719,-2.14778 9.19617,-11.54984 9.64194,-14.88824 0.2942,-2.20329 -0.99054,-2.90074 -2.79671,-1.51826 -3.67659,2.81414 -9.10055,12.17413 -9.10759,15.71677 -0.003,1.73701 0.51748,1.89583 2.26236,0.68973 z m -15.39588,-7.48822 c 3.24956,-1.70807 7.4264,-7.23636 7.43157,-9.83613 0.005,-2.30737 -3.82617,0.93615 -6.60927,5.5961 -1.73054,2.89757 -2.71106,4.92218 -2.38414,4.92283 0.14401,2.8e-4 0.84684,-0.30698 1.56184,-0.6828 z m -82.536688,16.26379 c -2.60831,-1.18971 -2.76888,-5.59508 -0.44526,-12.21603 0.45472,-1.29567 1.73941,-4.53277 2.85487,-7.19356 1.11546,-2.66079 2.02835,-4.95516 2.02863,-5.09861 0.001,-0.72825 3.4249,-0.77203 4.91598,-0.0629 1.818,0.86465 1.7617,1.24193 -1.01375,6.79352 -3.51718,7.03525 -4.73493,10.81642 -3.87228,12.0237 1.39659,1.95456 6.10322,-4.16428 11.15754,-14.50535 0.83757,-1.71365 1.52432,-3.37617 1.52612,-3.69449 0.0107,-1.89393 5.24433,-2.11105 6.55614,-0.27199 0.69249,0.97083 0.45153,1.93677 -1.25493,5.03066 -1.77531,3.21872 -4.47508,9.25607 -4.79366,10.71979 -0.95473,4.38657 3.37635,1.58513 7.59217,-4.91079 2.27526,-3.50584 5.11757,-10.39874 5.12159,-12.42042 0.002,-0.93152 0.0567,-1.00351 0.88683,-1.16412 1.2542,-0.24265 2.98152,0.0864 3.92059,0.74696 1.73828,1.22265 1.45487,3.43146 -1.1535,8.98982 -0.8377,1.78512 -1.57722,3.36252 -1.64336,3.50533 -0.2162,0.46681 0.21226,-0.0393 1.21957,-1.44062 2.81702,-3.91887 7.36315,-8.68187 10.09975,-10.58156 2.94064,-2.04133 5.54974,-2.37638 6.96583,-0.89451 0.5406,0.56572 0.64949,0.91683 0.64716,2.0867 -0.003,1.6219 -0.13791,1.94049 -2.99279,7.07923 -3.54921,6.3885 -4.62012,9.29949 -3.71146,10.0886 0.53543,0.46498 1.86269,-0.33821 3.86816,-2.34081 2.51419,-2.51059 4.537078,-5.37354 5.965418,-8.44271 1.23125,-2.64569 2.90405,-6.144 6.36004,-13.30068 1.13787,-2.35629 3.38918,-7.0979 5.00292,-10.5369 2.90522,-6.19127 2.9443,-6.25698 3.975,-6.68443 0.57252,-0.23743 1.69192,-0.43039 2.48757,-0.42881 1.57407,0.003 3.74467,0.65325 3.93712,1.1792 0.1185,0.32386 -1.66466,4.02104 -2.32571,4.82209 -0.18593,0.2253 -0.3382,0.48477 -0.33838,0.57661 -1.8e-4,0.0918 -0.50703,1.05614 -1.12633,2.14291 -0.61931,1.08677 -1.12611,2.02497 -1.12622,2.0849 -1.2e-4,0.0599 -0.8447,1.58022 -1.87685,3.37844 -1.03214,1.79822 -1.87672,3.31904 -1.87684,3.3796 -1.2e-4,0.0606 -0.26392,0.54584 -0.58622,1.0784 -0.87972,1.45362 -2.16653,3.8997 -2.16696,4.11918 -2.2e-4,0.10633 0.36157,-0.19101 0.80397,-0.66077 1.91575,-2.03423 4.17331,-3.19103 6.21625,-3.18528 2.54205,0.007 3.45746,1.32774 3.4502,4.97731 -0.0104,5.22725 -3.74001,13.12953 -8.29082,17.56654 -5.99619,5.84623 -13.90224,5.55428 -15.202608,-0.56141 l -0.29487,-1.38677 -1.34265,1.50551 c -3.3869,3.79776 -6.39788,5.7013 -9.01665,5.70035 -1.4327,-5.2e-4 -1.6391,-0.0745 -2.49172,-0.8924 l -0.92963,-0.89183 0.0182,-2.29371 c 0.0231,-2.92148 0.3999,-3.90862 4.78011,-12.52434 0.78094,-1.53609 1.10422,-2.79646 0.65967,-2.57181 -0.10296,0.052 -0.47039,0.24306 -0.81652,0.4245 -2.61697,1.37188 -12.37666,14.18189 -13.66354,17.93398 -0.3909,1.13972 -0.55658,1.33223 -1.26447,1.46918 -1.84531,0.35702 -3.48257,-0.51243 -3.7738,-2.00404 -0.17702,-0.90663 0.026,-3.08815 0.37067,-3.98253 0.10449,-0.27117 -1.03722,0.80115 -2.53713,2.38293 -3.0678,3.23524 -4.59859,4.19694 -6.68086,4.19717 -2.52809,2.8e-4 -3.56381,-1.46046 -3.30634,-4.66313 0.087,-1.08237 0.22812,-2.31867 0.31357,-2.74733 l 0.15536,-0.77938 -0.44319,0.64886 c -3.42471,5.01405 -5.46664,7.23202 -7.6394,8.29801 -1.73078,0.84915 -2.66733,0.94721 -3.85827,0.404 z m 60.309758,-6.29427 c 3.9758,-2.10396 8.91977,-11.103 9.37239,-17.05968 0.12971,-1.70699 0.0866,-2.08925 -0.279,-2.47179 -0.55752,-0.58342 -1.14281,-0.39631 -2.81686,0.9005 -4.73227,3.66589 -10.2475,14.25651 -9.3165,17.89003 0.36769,1.43505 1.29926,1.6621 3.03997,0.74094 z m 98.68215,-24.29641 c 0.10558,-1.29445 0.0333,-1.59336 -0.65795,-2.72118 -1.5447,-2.52024 -4.28189,-4.68295 -8.76377,-6.92444 -5.46576,-2.73355 -12.26052,-4.99326 -19.07705,-6.34437 -2.1246,-0.42113 -2.25912,-0.48489 -1.99291,-0.94471 0.35915,-0.62036 1.47315,-0.512 6.18898,0.60197 10.28964,2.43063 18.3677,6.18387 22.30791,10.36476 0.71595,0.75969 1.53347,1.8571 1.8167,2.43869 0.7023,1.4421 0.89154,3.33643 0.42547,4.25901 -0.35322,0.69918 -0.36185,0.67371 -0.24738,-0.72973 z m -150.927088,0.54946 c 8.65143,-1.08423 17.6752,-2.60864 26.3152,-4.44551 12.51571,-2.66084 13.90449,-2.98136 23.639258,-5.4559 2.09388,-0.53225 3.87129,-0.90051 3.9498,-0.81835 0.0785,0.0822 -0.10316,0.84791 -0.40373,1.70166 -0.44488,1.26365 -0.66962,1.57975 -1.20871,1.70006 -4.79436,1.06997 -20.528568,4.24544 -24.359908,4.91631 -8.86742,1.55268 -17.01739,2.38187 -25.06469,2.55012 -3.98476,0.0833 -4.50234,0.0565 -2.86722,-0.14839 z m 145.249408,-1.69548 c 7.7e-4,-0.38653 -2.7971,-2.24595 -5.25884,-3.49495 -7.31392,-3.71079 -17.63602,-6.43884 -28.63067,-7.56685 -4.51676,-0.46341 -16.77322,-0.64607 -22.09887,-0.32935 -6.14735,0.36558 -19.19706,2.08562 -22.60229,2.97913 -0.37734,0.099 -0.68594,0.11401 -0.68578,0.0333 1.6e-4,-0.0807 0.35125,-0.76421 0.78019,-1.51897 0.42895,-0.75475 0.87676,-1.63616 0.99513,-1.95868 0.11837,-0.32251 0.33262,-0.58616 0.4761,-0.58587 0.14349,2.8e-4 2.13862,-0.33795 4.43362,-0.75162 14.38265,-2.59248 26.33403,-3.11294 37.46264,-1.63143 10.79587,1.43721 21.29183,4.82831 28.53217,9.21834 3.50506,2.12522 7.20643,5.24595 6.76524,5.70396 -0.0931,0.0966 -0.16894,0.0529 -0.16864,-0.097 z M 73.240752,122.99152 c 1.29854,-3.81116 3.94132,-7.87521 7.06294,-10.86133 7.91425,-7.57074 19.40974,-10.59353 31.234658,-8.2133 3.21198,0.64654 9.76555,3.05422 11.58628,4.25663 0.27392,0.1809 1.17052,0.71679 1.99243,1.19088 0.82191,0.47409 1.55034,0.93264 1.61874,1.019 0.0684,0.0864 0.59523,0.49129 1.17073,0.89984 1.22043,0.8664 3.55839,3.38266 3.5575,3.82881 -3.3e-4,0.16872 -0.47669,-0.0954 -1.05857,-0.58688 -2.14664,-1.81324 -6.58989,-4.18796 -10.17151,-5.43622 -5.11067,-1.78115 -8.91034,-2.3942 -14.73052,-2.37665 -7.466968,0.0225 -14.070388,1.91742 -20.538078,5.8936 -3.35275,2.06118 -8.87608,7.19859 -10.6488,9.90475 -1.1058,1.68808 -1.55563,1.88915 -1.0758,0.48087 z m -2.87566,-3.69375 c -0.61621,-0.46332 -2.71873,-1.8811 -4.67226,-3.15063 -1.95352,-1.26953 -3.50706,-2.35476 -3.4523,-2.41161 0.0548,-0.0569 1.9906,0.5424 4.30186,1.33166 2.31126,0.78926 4.67888,1.57878 5.26139,1.7545 0.5825,0.17571 1.05897,0.38642 1.0588,0.46824 -6.4e-4,0.32453 -1.1039,2.88441 -1.236,2.86788 -0.0776,-0.01 -0.64527,-0.39673 -1.26149,-0.86004 z m 3.33306,-5.59556 c -0.55441,-0.51257 -2.89931,-2.67534 -5.21087,-4.80614 -2.31157,-2.1308 -4.94384,-4.55944 -5.8495,-5.39697 -0.90565,-0.83753 -2.21067,-2.02434 -2.90002,-2.63735 -2.76956,-2.462839 -5.47764,-5.026533 -5.39995,-5.112034 0.0453,-0.04983 2.13511,1.196596 4.64407,2.769839 5.21739,3.271565 15.88054,9.778425 17.82366,10.876345 1.4413,0.81438 1.56669,1.11511 0.7711,1.84939 -0.2944,0.27172 -1.0607,1.14538 -1.70287,1.94146 l -1.16759,1.44742 z m 95.793418,0.52858 c -2.93215,-0.81901 -9.88891,-1.22777 -18.32504,-1.07673 -4.45728,0.0798 -8.7215,0.25365 -9.47604,0.38632 -0.75455,0.13267 -1.98917,0.30419 -2.74361,0.38116 -1.0045,0.10247 -0.6705,-0.0282 1.24772,-0.48826 8.40025,-2.01454 18.80642,-2.15522 28.30131,-0.38261 1.85083,0.34553 2.51148,0.57215 2.56788,0.88082 0.11382,0.62292 -0.19985,0.68263 -1.57222,0.2993 z m 3.83112,-1.98817 c -0.22399,-1.25114 -0.59549,-2.57557 -0.82556,-2.94318 -0.51628,-0.8249 -2.05332,-1.54691 -3.86486,-1.81547 l -1.37101,-0.20325 1.77912,-0.28697 c 3.12563,-0.50416 4.32752,-1.97325 4.34489,-5.31085 0.0107,-2.057883 0.4149,-2.043736 0.60597,0.0212 0.20899,2.25858 0.5817,3.29284 1.5119,4.19543 0.72599,0.70446 2.27302,1.22944 3.65058,1.23883 0.62416,0.004 0.73358,0.0667 0.45011,0.25682 -0.20599,0.13815 -0.74281,0.25225 -1.19293,0.25354 -0.9429,0.003 -2.44041,0.59685 -3.13082,1.24217 -0.6422,0.60025 -0.91144,1.38919 -1.25741,3.68449 l -0.29273,1.94203 z m -41.41168,-0.63421 -1.67619,-1.65039 3.05498,-2.05442 c 1.68024,-1.12993 3.84142,-2.55208 4.80262,-3.16034 0.96121,-0.60825 2.66735,-1.70905 3.79144,-2.44621 5.03882,-3.304416 9.67597,-6.270052 9.92168,-6.345298 0.14746,-0.04516 -0.0691,0.231254 -0.48133,0.614247 -0.41219,0.382994 -1.53643,1.471069 -2.49831,2.417945 -0.96188,0.946876 -2.31093,2.237796 -2.9979,2.868716 -0.68696,0.63092 -1.93286,1.79743 -2.76865,2.59225 -0.83579,0.79481 -2.52205,2.37675 -3.74723,3.51541 -1.22519,1.13866 -2.9674,2.80178 -3.87158,3.69582 -0.90419,0.89404 -1.69108,1.62038 -1.74866,1.61409 -0.0576,-0.006 -0.85897,-0.75411 -1.78087,-1.66182 z m -54.779418,-7.60512 c -1.57023,-2.46652 -3.22025,-4.999187 -3.66671,-5.628139 -1.19307,-1.68074 -0.99396,-1.784925 0.62039,-0.324627 0.78715,0.712036 3.14768,2.843406 5.24561,4.736386 2.09794,1.89297 3.7217,3.52362 3.60836,3.62365 -0.43466,0.38363 -2.77464,2.08607 -2.86143,2.08181 -0.0502,-0.002 -1.37599,-2.02255 -2.94622,-4.48908 z m 48.676108,2.88419 c -1.35618,-0.93027 -1.54816,-1.25094 -0.95945,-1.60251 0.19078,-0.11393 2.22504,-2.07466 4.52058,-4.35718 2.29554,-2.282526 4.28627,-4.192589 4.42384,-4.24459 0.27994,-0.105812 0.20106,0.044 -1.41691,2.691189 -0.61083,0.999391 -1.98829,3.306171 -3.06103,5.126181 -1.07274,1.82002 -2.00653,3.30339 -2.07508,3.29639 -0.0686,-0.007 -0.71294,-0.41627 -1.43195,-0.90948 z m 38.28835,-1.99216 c -0.0834,-0.28605 -0.22694,-0.98806 -0.31892,-1.56001 -0.42167,-2.6221 -1.39456,-3.505903 -4.38472,-3.9832 l -1.34088,-0.214036 1.80226,-0.285319 c 1.03977,-0.164608 2.10977,-0.512601 2.52911,-0.822531 0.88956,-0.657475 1.53501,-2.244138 1.53806,-3.780925 0.004,-1.817894 0.42088,-1.604002 0.56285,0.288517 0.19692,2.625197 1.19882,3.740652 3.9162,4.360052 1.49401,0.340545 1.54107,0.371145 0.60496,0.393349 -1.31167,0.03111 -3.63319,1.246203 -4.02706,2.107783 -0.16587,0.36282 -0.39801,1.41494 -0.51587,2.33804 -0.13605,1.0655 -0.26969,1.48846 -0.36599,1.15828 z m -78.617218,-0.36364 c -0.86637,-2.69301 -7.31052,-19.452565 -9.4051,-24.460241 -0.65429,-1.564246 -0.10053,-0.926435 1.48183,1.706754 0.79853,1.328819 2.47414,4.055414 3.72359,6.059102 1.24945,2.003688 2.94209,4.755459 3.76142,6.115047 0.81934,1.359589 2.29233,3.797517 3.27331,5.41762 0.98098,1.620098 1.78123,3.025138 1.77832,3.122298 -0.003,0.0972 -1.01947,0.66614 -2.25902,1.26441 -1.51803,0.73268 -2.28658,0.98567 -2.35435,0.77501 z m 33.468478,-1.21528 c -1.40884,-0.58961 -1.90324,-0.91496 -1.80272,-1.18632 0.18614,-0.5025 12.4427,-21.900685 12.80806,-22.361028 0.0472,-0.05947 0.14174,-0.04959 0.2101,0.02194 0.0683,0.07153 -0.20699,0.996865 -0.61187,2.056296 -0.40489,1.05943 -1.46794,3.971465 -2.36234,6.471188 -0.8944,2.499723 -2.49288,6.823817 -3.55218,9.609098 -1.0593,2.785286 -1.98374,5.327176 -2.05432,5.648656 -0.16189,0.73737 -0.27976,0.72575 -2.63473,-0.25983 z M 93.760572,98.58285 c -0.21516,-1.465593 -0.56144,-4.185448 -0.76951,-6.04412 -0.20807,-1.858673 -0.44078,-3.671913 -0.51714,-4.029423 -0.26909,-1.25998 0.34769,-0.146929 1.22549,2.211557 2.89515,7.778656 3.63848,9.832196 3.57683,9.881326 -0.14294,0.1139 -2.42544,0.64677 -2.76748,0.64609 -0.26075,-5.2e-4 -0.46245,-0.71908 -0.74819,-2.66543 z m 17.347318,2.36786 c -0.71971,-0.1457 -1.30829,-0.4015 -1.30795,-0.56845 5.6e-4,-0.28408 2.26207,-6.756179 3.68002,-10.53168 0.8251,-2.196951 1.16536,-2.555334 0.98515,-1.037626 -0.0764,0.643092 -0.39318,3.712487 -0.70405,6.820879 -0.47447,4.744187 -0.62779,5.646017 -0.95492,5.616707 -0.21433,-0.0192 -0.97854,-0.15413 -1.69825,-0.29983 z m -9.7853,-0.8392 c 10e-4,-0.542268 1.09564,-16.236962 1.279,-18.339359 0.13088,-1.500641 0.31786,-4.280758 0.41552,-6.178039 0.0976,-1.89728 0.23296,-3.391609 0.30069,-3.320731 0.0677,0.07088 0.20961,1.097349 0.31529,2.281047 0.3427,3.83861 1.67593,16.858583 2.16286,21.122019 0.26086,2.284024 0.42037,4.24331 0.35445,4.353973 -0.1219,0.20466 -4.82821,0.28371 -4.82781,0.0811 z"
        id="path1" 
        className="draw-logo"
  /></g></g>
</svg>
